<mxfile host="65bd71144e" pages="4">
    <diagram name="State Machine for Right-Hand Rule" id="0">
        <mxGraphModel dx="953" dy="976" grid="1" gridSize="10" guides="1" tooltips="1" connect="1" arrows="1" fold="1" page="1" pageScale="1" pageWidth="827" pageHeight="1169" math="0" shadow="0">
            <root>
                <mxCell id="0"/>
                <mxCell id="1" parent="0"/>
                <mxCell id="start" value="" style="ellipse;fillColor=#000000;strokeColor=none;" parent="1" vertex="1">
                    <mxGeometry x="30" y="115" width="30" height="30" as="geometry"/>
                </mxCell>
                <mxCell id="sensor_check" value="Sensor Check" style="rounded=1;whiteSpace=wrap;html=1;" parent="1" vertex="1">
                    <mxGeometry x="130" y="100" width="140" height="60" as="geometry"/>
                </mxCell>
                <mxCell id="FuK4gbNFFSEncP7rX3Nj-37" style="edgeStyle=orthogonalEdgeStyle;rounded=0;orthogonalLoop=1;jettySize=auto;html=1;entryX=0.5;entryY=1;entryDx=0;entryDy=0;" parent="1" source="turn_right" target="sensor_check" edge="1">
                    <mxGeometry relative="1" as="geometry"/>
                </mxCell>
                <mxCell id="MXY2HZaCNckMIYu-Z9d6-27" value="after 1 sec." style="edgeLabel;html=1;align=center;verticalAlign=middle;resizable=0;points=[];" parent="FuK4gbNFFSEncP7rX3Nj-37" vertex="1" connectable="0">
                    <mxGeometry x="-0.4735" relative="1" as="geometry">
                        <mxPoint x="17" y="-2" as="offset"/>
                    </mxGeometry>
                </mxCell>
                <mxCell id="turn_right" value="Turn Right" style="rounded=1;whiteSpace=wrap;html=1;" parent="1" vertex="1">
                    <mxGeometry x="328.5" y="310.5" width="140" height="60" as="geometry"/>
                </mxCell>
                <mxCell id="FuK4gbNFFSEncP7rX3Nj-39" style="edgeStyle=orthogonalEdgeStyle;rounded=0;orthogonalLoop=1;jettySize=auto;html=1;" parent="1" source="turn_left" edge="1">
                    <mxGeometry relative="1" as="geometry">
                        <mxPoint x="200" y="160" as="targetPoint"/>
                    </mxGeometry>
                </mxCell>
                <mxCell id="turn_left" value="Turn Left" style="rounded=1;whiteSpace=wrap;html=1;" parent="1" vertex="1">
                    <mxGeometry x="328.5" y="589.5" width="140" height="60" as="geometry"/>
                </mxCell>
                <mxCell id="FuK4gbNFFSEncP7rX3Nj-40" style="edgeStyle=orthogonalEdgeStyle;rounded=0;orthogonalLoop=1;jettySize=auto;html=1;entryX=0.5;entryY=1;entryDx=0;entryDy=0;" parent="1" source="move_backward" target="sensor_check" edge="1">
                    <mxGeometry relative="1" as="geometry"/>
                </mxCell>
                <mxCell id="move_backward" value="Move Backward" style="rounded=1;whiteSpace=wrap;html=1;" parent="1" vertex="1">
                    <mxGeometry x="671.5" y="720" width="140" height="60" as="geometry"/>
                </mxCell>
                <mxCell id="goal_reached" value="" style="ellipse;fillColor=none;strokeColor=#000000;strokeWidth=2;" parent="1" vertex="1">
                    <mxGeometry x="414" y="195" width="30" height="30" as="geometry"/>
                </mxCell>
                <mxCell id="edge_start_sensor" style="edgeStyle=orthogonalEdgeStyle;rounded=0;" parent="1" source="start" target="sensor_check" edge="1">
                    <mxGeometry relative="1" as="geometry"/>
                </mxCell>
                <mxCell id="FuK4gbNFFSEncP7rX3Nj-1" value="" style="edgeStyle=orthogonalEdgeStyle;rounded=0;" parent="1" source="sensor_check" target="FuK4gbNFFSEncP7rX3Nj-2" edge="1">
                    <mxGeometry relative="1" as="geometry">
                        <mxPoint x="270" y="130" as="sourcePoint"/>
                        <mxPoint x="735" y="200" as="targetPoint"/>
                    </mxGeometry>
                </mxCell>
                <mxCell id="FuK4gbNFFSEncP7rX3Nj-5" value="" style="edgeStyle=orthogonalEdgeStyle;rounded=0;" parent="1" source="sensor_check" target="FuK4gbNFFSEncP7rX3Nj-2" edge="1">
                    <mxGeometry relative="1" as="geometry">
                        <mxPoint x="270" y="130" as="sourcePoint"/>
                        <mxPoint x="400" y="350" as="targetPoint"/>
                    </mxGeometry>
                </mxCell>
                <mxCell id="FuK4gbNFFSEncP7rX3Nj-2" value="" style="rhombus;whiteSpace=wrap;html=1;" parent="1" vertex="1">
                    <mxGeometry x="701.5" y="300" width="80" height="80" as="geometry"/>
                </mxCell>
                <mxCell id="FuK4gbNFFSEncP7rX3Nj-8" value="" style="edgeStyle=orthogonalEdgeStyle;rounded=0;" parent="1" source="FuK4gbNFFSEncP7rX3Nj-2" target="FuK4gbNFFSEncP7rX3Nj-7" edge="1">
                    <mxGeometry relative="1" as="geometry">
                        <mxPoint x="741.5" y="380" as="sourcePoint"/>
                        <mxPoint x="741.5" y="560" as="targetPoint"/>
                    </mxGeometry>
                </mxCell>
                <mxCell id="FuK4gbNFFSEncP7rX3Nj-14" value="else" style="edgeLabel;html=1;align=center;verticalAlign=middle;resizable=0;points=[];" parent="FuK4gbNFFSEncP7rX3Nj-8" vertex="1" connectable="0">
                    <mxGeometry x="-0.1389" relative="1" as="geometry">
                        <mxPoint as="offset"/>
                    </mxGeometry>
                </mxCell>
                <mxCell id="FuK4gbNFFSEncP7rX3Nj-11" value="" style="edgeStyle=orthogonalEdgeStyle;rounded=0;orthogonalLoop=1;jettySize=auto;html=1;exitX=0;exitY=0.5;exitDx=0;exitDy=0;entryX=1;entryY=0.5;entryDx=0;entryDy=0;" parent="1" source="FuK4gbNFFSEncP7rX3Nj-7" target="FuK4gbNFFSEncP7rX3Nj-10" edge="1">
                    <mxGeometry relative="1" as="geometry">
                        <mxPoint x="381.5" y="480.5" as="sourcePoint"/>
                        <mxPoint x="621.5" y="480.52941176470586" as="targetPoint"/>
                    </mxGeometry>
                </mxCell>
                <mxCell id="FuK4gbNFFSEncP7rX3Nj-12" value="vorne frei" style="edgeLabel;html=1;align=center;verticalAlign=middle;resizable=0;points=[];" parent="FuK4gbNFFSEncP7rX3Nj-11" vertex="1" connectable="0">
                    <mxGeometry x="-0.2125" relative="1" as="geometry">
                        <mxPoint x="23" y="-8" as="offset"/>
                    </mxGeometry>
                </mxCell>
                <mxCell id="FuK4gbNFFSEncP7rX3Nj-17" value="" style="edgeStyle=orthogonalEdgeStyle;rounded=0;orthogonalLoop=1;jettySize=auto;html=1;" parent="1" source="FuK4gbNFFSEncP7rX3Nj-7" target="FuK4gbNFFSEncP7rX3Nj-16" edge="1">
                    <mxGeometry relative="1" as="geometry"/>
                </mxCell>
                <mxCell id="FuK4gbNFFSEncP7rX3Nj-21" value="else" style="edgeLabel;html=1;align=center;verticalAlign=middle;resizable=0;points=[];" parent="FuK4gbNFFSEncP7rX3Nj-17" vertex="1" connectable="0">
                    <mxGeometry x="-0.2917" y="2" relative="1" as="geometry">
                        <mxPoint y="4" as="offset"/>
                    </mxGeometry>
                </mxCell>
                <mxCell id="FuK4gbNFFSEncP7rX3Nj-7" value="" style="rhombus;whiteSpace=wrap;html=1;" parent="1" vertex="1">
                    <mxGeometry x="701.5" y="440" width="80" height="80" as="geometry"/>
                </mxCell>
                <mxCell id="FuK4gbNFFSEncP7rX3Nj-38" style="edgeStyle=orthogonalEdgeStyle;rounded=0;orthogonalLoop=1;jettySize=auto;html=1;" parent="1" source="FuK4gbNFFSEncP7rX3Nj-10" edge="1">
                    <mxGeometry relative="1" as="geometry">
                        <mxPoint x="200" y="160" as="targetPoint"/>
                    </mxGeometry>
                </mxCell>
                <mxCell id="FuK4gbNFFSEncP7rX3Nj-10" value="Move Forward" style="rounded=1;whiteSpace=wrap;html=1;" parent="1" vertex="1">
                    <mxGeometry x="328.5" y="450.5" width="140" height="60" as="geometry"/>
                </mxCell>
                <mxCell id="FuK4gbNFFSEncP7rX3Nj-15" style="edgeStyle=orthogonalEdgeStyle;rounded=0;orthogonalLoop=1;jettySize=auto;html=1;entryX=1;entryY=0.5;entryDx=0;entryDy=0;exitX=0;exitY=0.5;exitDx=0;exitDy=0;" parent="1" source="FuK4gbNFFSEncP7rX3Nj-2" target="FuK4gbNFFSEncP7rX3Nj-27" edge="1">
                    <mxGeometry relative="1" as="geometry">
                        <mxPoint x="381.5" y="340.5" as="sourcePoint"/>
                        <mxPoint x="621.5" y="340.5" as="targetPoint"/>
                    </mxGeometry>
                </mxCell>
                <mxCell id="FuK4gbNFFSEncP7rX3Nj-19" value="rechts frei" style="edgeLabel;html=1;align=center;verticalAlign=middle;resizable=0;points=[];" parent="FuK4gbNFFSEncP7rX3Nj-15" vertex="1" connectable="0">
                    <mxGeometry x="-0.1233" y="-1" relative="1" as="geometry">
                        <mxPoint y="-9" as="offset"/>
                    </mxGeometry>
                </mxCell>
                <mxCell id="FuK4gbNFFSEncP7rX3Nj-18" style="edgeStyle=orthogonalEdgeStyle;rounded=0;orthogonalLoop=1;jettySize=auto;html=1;entryX=1;entryY=0.5;entryDx=0;entryDy=0;exitX=0;exitY=0.5;exitDx=0;exitDy=0;" parent="1" source="FuK4gbNFFSEncP7rX3Nj-16" target="turn_left" edge="1">
                    <mxGeometry relative="1" as="geometry">
                        <mxPoint x="381.5" y="619.5" as="sourcePoint"/>
                        <mxPoint x="621.5" y="619.5" as="targetPoint"/>
                    </mxGeometry>
                </mxCell>
                <mxCell id="FuK4gbNFFSEncP7rX3Nj-20" value="links frei" style="edgeLabel;html=1;align=center;verticalAlign=middle;resizable=0;points=[];" parent="FuK4gbNFFSEncP7rX3Nj-18" vertex="1" connectable="0">
                    <mxGeometry x="-0.0733" y="3" relative="1" as="geometry">
                        <mxPoint x="38" y="-12" as="offset"/>
                    </mxGeometry>
                </mxCell>
                <mxCell id="FuK4gbNFFSEncP7rX3Nj-22" style="edgeStyle=orthogonalEdgeStyle;rounded=0;orthogonalLoop=1;jettySize=auto;html=1;" parent="1" source="FuK4gbNFFSEncP7rX3Nj-16" target="move_backward" edge="1">
                    <mxGeometry relative="1" as="geometry"/>
                </mxCell>
                <mxCell id="FuK4gbNFFSEncP7rX3Nj-23" value="else" style="edgeLabel;html=1;align=center;verticalAlign=middle;resizable=0;points=[];" parent="FuK4gbNFFSEncP7rX3Nj-22" vertex="1" connectable="0">
                    <mxGeometry x="-0.1667" relative="1" as="geometry">
                        <mxPoint as="offset"/>
                    </mxGeometry>
                </mxCell>
                <mxCell id="FuK4gbNFFSEncP7rX3Nj-16" value="" style="rhombus;whiteSpace=wrap;html=1;" parent="1" vertex="1">
                    <mxGeometry x="701.5" y="579" width="80" height="80" as="geometry"/>
                </mxCell>
                <mxCell id="FuK4gbNFFSEncP7rX3Nj-35" style="edgeStyle=orthogonalEdgeStyle;rounded=0;orthogonalLoop=1;jettySize=auto;html=1;entryX=1;entryY=0.5;entryDx=0;entryDy=0;" parent="1" source="FuK4gbNFFSEncP7rX3Nj-25" target="goal_reached" edge="1">
                    <mxGeometry relative="1" as="geometry"/>
                </mxCell>
                <mxCell id="FuK4gbNFFSEncP7rX3Nj-25" value="Ziel erreicht" style="rounded=1;whiteSpace=wrap;html=1;" parent="1" vertex="1">
                    <mxGeometry x="511.5" y="180" width="140" height="60" as="geometry"/>
                </mxCell>
                <mxCell id="FuK4gbNFFSEncP7rX3Nj-31" style="edgeStyle=orthogonalEdgeStyle;rounded=0;orthogonalLoop=1;jettySize=auto;html=1;entryX=1;entryY=0.5;entryDx=0;entryDy=0;" parent="1" source="FuK4gbNFFSEncP7rX3Nj-27" target="turn_right" edge="1">
                    <mxGeometry relative="1" as="geometry"/>
                </mxCell>
                <mxCell id="FuK4gbNFFSEncP7rX3Nj-33" value="else" style="edgeLabel;html=1;align=center;verticalAlign=middle;resizable=0;points=[];" parent="FuK4gbNFFSEncP7rX3Nj-31" vertex="1" connectable="0">
                    <mxGeometry x="-0.3368" y="-1" relative="1" as="geometry">
                        <mxPoint x="-6" y="-7" as="offset"/>
                    </mxGeometry>
                </mxCell>
                <mxCell id="FuK4gbNFFSEncP7rX3Nj-34" style="edgeStyle=orthogonalEdgeStyle;rounded=0;orthogonalLoop=1;jettySize=auto;html=1;entryX=0.5;entryY=1;entryDx=0;entryDy=0;" parent="1" source="FuK4gbNFFSEncP7rX3Nj-27" target="FuK4gbNFFSEncP7rX3Nj-25" edge="1">
                    <mxGeometry relative="1" as="geometry"/>
                </mxCell>
                <mxCell id="FuK4gbNFFSEncP7rX3Nj-36" value="vorne frei &amp;amp;&amp;amp; links frei" style="edgeLabel;html=1;align=center;verticalAlign=middle;resizable=0;points=[];" parent="FuK4gbNFFSEncP7rX3Nj-34" vertex="1" connectable="0">
                    <mxGeometry x="0.0048" y="-1" relative="1" as="geometry">
                        <mxPoint as="offset"/>
                    </mxGeometry>
                </mxCell>
                <mxCell id="FuK4gbNFFSEncP7rX3Nj-27" value="" style="rhombus;whiteSpace=wrap;html=1;" parent="1" vertex="1">
                    <mxGeometry x="541.5" y="300.5" width="80" height="80" as="geometry"/>
                </mxCell>
            </root>
        </mxGraphModel>
    </diagram>
    <diagram id="JUoCAKlTKc23usxnbsCP" name="Regelkreise Move Forward">
        <mxGraphModel dx="1528" dy="1074" grid="1" gridSize="10" guides="1" tooltips="1" connect="1" arrows="1" fold="1" page="1" pageScale="1" pageWidth="827" pageHeight="1169" math="0" shadow="0">
            <root>
                <mxCell id="0"/>
                <mxCell id="1" parent="0"/>
                <mxCell id="N-XDdZ0_NrzwJ06vWBmq-4" style="edgeStyle=orthogonalEdgeStyle;rounded=0;orthogonalLoop=1;jettySize=auto;html=1;" parent="1" source="N-XDdZ0_NrzwJ06vWBmq-1" edge="1">
                    <mxGeometry relative="1" as="geometry">
                        <mxPoint x="370" y="139" as="targetPoint"/>
                    </mxGeometry>
                </mxCell>
                <mxCell id="N-XDdZ0_NrzwJ06vWBmq-10" value="Regelabweichung" style="edgeLabel;html=1;align=center;verticalAlign=middle;resizable=0;points=[];" parent="N-XDdZ0_NrzwJ06vWBmq-4" vertex="1" connectable="0">
                    <mxGeometry x="-0.3169" y="-2" relative="1" as="geometry">
                        <mxPoint x="21" y="-2" as="offset"/>
                    </mxGeometry>
                </mxCell>
                <mxCell id="N-XDdZ0_NrzwJ06vWBmq-1" value="" style="ellipse;" parent="1" vertex="1">
                    <mxGeometry x="205" y="125" width="30" height="30" as="geometry"/>
                </mxCell>
                <mxCell id="N-XDdZ0_NrzwJ06vWBmq-7" value="" style="endArrow=classic;html=1;rounded=0;entryX=0;entryY=0.5;entryDx=0;entryDy=0;" parent="1" edge="1">
                    <mxGeometry width="50" height="50" relative="1" as="geometry">
                        <mxPoint x="15" y="139.76" as="sourcePoint"/>
                        <mxPoint x="204.999999999985" y="139.76" as="targetPoint"/>
                    </mxGeometry>
                </mxCell>
                <mxCell id="N-XDdZ0_NrzwJ06vWBmq-9" value="Drehzahl links = Drehzahl rechts" style="edgeLabel;html=1;align=center;verticalAlign=middle;resizable=0;points=[];" parent="N-XDdZ0_NrzwJ06vWBmq-7" vertex="1" connectable="0">
                    <mxGeometry x="-0.1298" y="1" relative="1" as="geometry">
                        <mxPoint x="-7" y="1" as="offset"/>
                    </mxGeometry>
                </mxCell>
                <mxCell id="N-XDdZ0_NrzwJ06vWBmq-12" style="edgeStyle=orthogonalEdgeStyle;rounded=0;orthogonalLoop=1;jettySize=auto;html=1;" parent="1" source="N-XDdZ0_NrzwJ06vWBmq-11" edge="1">
                    <mxGeometry relative="1" as="geometry">
                        <mxPoint x="600" y="140" as="targetPoint"/>
                    </mxGeometry>
                </mxCell>
                <mxCell id="N-XDdZ0_NrzwJ06vWBmq-13" value="Motorspannungen" style="edgeLabel;html=1;align=center;verticalAlign=middle;resizable=0;points=[];" parent="N-XDdZ0_NrzwJ06vWBmq-12" vertex="1" connectable="0">
                    <mxGeometry x="-0.1719" relative="1" as="geometry">
                        <mxPoint x="8" as="offset"/>
                    </mxGeometry>
                </mxCell>
                <mxCell id="N-XDdZ0_NrzwJ06vWBmq-11" value="Regler" style="rounded=0;whiteSpace=wrap;html=1;" parent="1" vertex="1">
                    <mxGeometry x="370" y="120" width="90" height="40" as="geometry"/>
                </mxCell>
                <mxCell id="N-XDdZ0_NrzwJ06vWBmq-15" value="Motoren" style="rounded=0;whiteSpace=wrap;html=1;" parent="1" vertex="1">
                    <mxGeometry x="600" y="120" width="90" height="40" as="geometry"/>
                </mxCell>
                <mxCell id="N-XDdZ0_NrzwJ06vWBmq-16" value="" style="endArrow=classic;html=1;rounded=0;entryX=0.5;entryY=0;entryDx=0;entryDy=0;" parent="1" target="N-XDdZ0_NrzwJ06vWBmq-15" edge="1">
                    <mxGeometry width="50" height="50" relative="1" as="geometry">
                        <mxPoint x="645" y="70" as="sourcePoint"/>
                        <mxPoint x="660" y="30" as="targetPoint"/>
                    </mxGeometry>
                </mxCell>
                <mxCell id="N-XDdZ0_NrzwJ06vWBmq-17" value="&lt;div&gt;Störgröße&lt;/div&gt;Unterschiede in der Motormechanik" style="text;html=1;align=right;verticalAlign=middle;resizable=0;points=[];autosize=1;strokeColor=none;fillColor=none;" parent="1" vertex="1">
                    <mxGeometry x="430" y="70" width="210" height="40" as="geometry"/>
                </mxCell>
                <mxCell id="N-XDdZ0_NrzwJ06vWBmq-18" value="" style="endArrow=classic;html=1;rounded=0;exitX=1;exitY=0.5;exitDx=0;exitDy=0;" parent="1" source="N-XDdZ0_NrzwJ06vWBmq-15" edge="1">
                    <mxGeometry width="50" height="50" relative="1" as="geometry">
                        <mxPoint x="760" y="170" as="sourcePoint"/>
                        <mxPoint x="810" y="140" as="targetPoint"/>
                    </mxGeometry>
                </mxCell>
                <mxCell id="N-XDdZ0_NrzwJ06vWBmq-19" value="Drezahldifferenz" style="edgeLabel;html=1;align=center;verticalAlign=middle;resizable=0;points=[];" parent="N-XDdZ0_NrzwJ06vWBmq-18" vertex="1" connectable="0">
                    <mxGeometry x="-0.2135" y="1" relative="1" as="geometry">
                        <mxPoint x="16" as="offset"/>
                    </mxGeometry>
                </mxCell>
                <mxCell id="N-XDdZ0_NrzwJ06vWBmq-20" value="" style="endArrow=classic;html=1;rounded=0;entryX=1;entryY=0.5;entryDx=0;entryDy=0;" parent="1" target="N-XDdZ0_NrzwJ06vWBmq-21" edge="1">
                    <mxGeometry width="50" height="50" relative="1" as="geometry">
                        <mxPoint x="700" y="140" as="sourcePoint"/>
                        <mxPoint x="700" y="250" as="targetPoint"/>
                        <Array as="points">
                            <mxPoint x="700" y="260"/>
                        </Array>
                    </mxGeometry>
                </mxCell>
                <mxCell id="N-XDdZ0_NrzwJ06vWBmq-22" style="edgeStyle=orthogonalEdgeStyle;rounded=0;orthogonalLoop=1;jettySize=auto;html=1;entryX=0.5;entryY=1;entryDx=0;entryDy=0;" parent="1" source="N-XDdZ0_NrzwJ06vWBmq-21" target="N-XDdZ0_NrzwJ06vWBmq-1" edge="1">
                    <mxGeometry relative="1" as="geometry"/>
                </mxCell>
                <mxCell id="N-XDdZ0_NrzwJ06vWBmq-23" value="Spannungen anpassen" style="edgeLabel;html=1;align=center;verticalAlign=middle;resizable=0;points=[];" parent="N-XDdZ0_NrzwJ06vWBmq-22" vertex="1" connectable="0">
                    <mxGeometry x="-0.1744" relative="1" as="geometry">
                        <mxPoint x="20" y="-1" as="offset"/>
                    </mxGeometry>
                </mxCell>
                <mxCell id="N-XDdZ0_NrzwJ06vWBmq-21" value="Drehzahlsensoren" style="rounded=0;whiteSpace=wrap;html=1;" parent="1" vertex="1">
                    <mxGeometry x="480" y="240" width="110" height="40" as="geometry"/>
                </mxCell>
                <mxCell id="N-XDdZ0_NrzwJ06vWBmq-24" style="edgeStyle=orthogonalEdgeStyle;rounded=0;orthogonalLoop=1;jettySize=auto;html=1;" parent="1" source="N-XDdZ0_NrzwJ06vWBmq-26" edge="1">
                    <mxGeometry relative="1" as="geometry">
                        <mxPoint x="370" y="429" as="targetPoint"/>
                    </mxGeometry>
                </mxCell>
                <mxCell id="N-XDdZ0_NrzwJ06vWBmq-25" value="Regelabweichung" style="edgeLabel;html=1;align=center;verticalAlign=middle;resizable=0;points=[];" parent="N-XDdZ0_NrzwJ06vWBmq-24" vertex="1" connectable="0">
                    <mxGeometry x="-0.3169" y="-2" relative="1" as="geometry">
                        <mxPoint x="21" y="-2" as="offset"/>
                    </mxGeometry>
                </mxCell>
                <mxCell id="N-XDdZ0_NrzwJ06vWBmq-26" value="" style="ellipse;" parent="1" vertex="1">
                    <mxGeometry x="205" y="415" width="30" height="30" as="geometry"/>
                </mxCell>
                <mxCell id="N-XDdZ0_NrzwJ06vWBmq-27" value="" style="endArrow=classic;html=1;rounded=0;entryX=0;entryY=0.5;entryDx=0;entryDy=0;" parent="1" edge="1">
                    <mxGeometry width="50" height="50" relative="1" as="geometry">
                        <mxPoint x="15" y="429.76" as="sourcePoint"/>
                        <mxPoint x="204.999999999985" y="429.76" as="targetPoint"/>
                    </mxGeometry>
                </mxCell>
                <mxCell id="N-XDdZ0_NrzwJ06vWBmq-28" value="Abstand links = Abstand rechts&amp;nbsp;" style="edgeLabel;html=1;align=center;verticalAlign=middle;resizable=0;points=[];" parent="N-XDdZ0_NrzwJ06vWBmq-27" vertex="1" connectable="0">
                    <mxGeometry x="-0.1298" y="1" relative="1" as="geometry">
                        <mxPoint x="-5" y="1" as="offset"/>
                    </mxGeometry>
                </mxCell>
                <mxCell id="N-XDdZ0_NrzwJ06vWBmq-29" style="edgeStyle=orthogonalEdgeStyle;rounded=0;orthogonalLoop=1;jettySize=auto;html=1;" parent="1" source="N-XDdZ0_NrzwJ06vWBmq-31" edge="1">
                    <mxGeometry relative="1" as="geometry">
                        <mxPoint x="600" y="430" as="targetPoint"/>
                    </mxGeometry>
                </mxCell>
                <mxCell id="N-XDdZ0_NrzwJ06vWBmq-30" value="Motorspannungen" style="edgeLabel;html=1;align=center;verticalAlign=middle;resizable=0;points=[];" parent="N-XDdZ0_NrzwJ06vWBmq-29" vertex="1" connectable="0">
                    <mxGeometry x="-0.1719" relative="1" as="geometry">
                        <mxPoint x="8" as="offset"/>
                    </mxGeometry>
                </mxCell>
                <mxCell id="N-XDdZ0_NrzwJ06vWBmq-31" value="Regler" style="rounded=0;whiteSpace=wrap;html=1;" parent="1" vertex="1">
                    <mxGeometry x="370" y="410" width="90" height="40" as="geometry"/>
                </mxCell>
                <mxCell id="N-XDdZ0_NrzwJ06vWBmq-32" value="Motoren" style="rounded=0;whiteSpace=wrap;html=1;" parent="1" vertex="1">
                    <mxGeometry x="600" y="410" width="90" height="40" as="geometry"/>
                </mxCell>
                <mxCell id="N-XDdZ0_NrzwJ06vWBmq-33" value="" style="endArrow=classic;html=1;rounded=0;entryX=0.5;entryY=0;entryDx=0;entryDy=0;" parent="1" target="N-XDdZ0_NrzwJ06vWBmq-32" edge="1">
                    <mxGeometry width="50" height="50" relative="1" as="geometry">
                        <mxPoint x="645" y="360" as="sourcePoint"/>
                        <mxPoint x="660" y="320" as="targetPoint"/>
                    </mxGeometry>
                </mxCell>
                <mxCell id="N-XDdZ0_NrzwJ06vWBmq-34" value="&lt;div&gt;Störgröße&lt;/div&gt;Unterschiede in der Motormechanik" style="text;html=1;align=right;verticalAlign=middle;resizable=0;points=[];autosize=1;strokeColor=none;fillColor=none;" parent="1" vertex="1">
                    <mxGeometry x="430" y="360" width="210" height="40" as="geometry"/>
                </mxCell>
                <mxCell id="N-XDdZ0_NrzwJ06vWBmq-35" value="" style="endArrow=classic;html=1;rounded=0;exitX=1;exitY=0.5;exitDx=0;exitDy=0;" parent="1" source="N-XDdZ0_NrzwJ06vWBmq-32" edge="1">
                    <mxGeometry width="50" height="50" relative="1" as="geometry">
                        <mxPoint x="760" y="460" as="sourcePoint"/>
                        <mxPoint x="810" y="430" as="targetPoint"/>
                    </mxGeometry>
                </mxCell>
                <mxCell id="N-XDdZ0_NrzwJ06vWBmq-36" value="Abstandsdifferenz" style="edgeLabel;html=1;align=center;verticalAlign=middle;resizable=0;points=[];" parent="N-XDdZ0_NrzwJ06vWBmq-35" vertex="1" connectable="0">
                    <mxGeometry x="-0.2135" y="1" relative="1" as="geometry">
                        <mxPoint x="16" as="offset"/>
                    </mxGeometry>
                </mxCell>
                <mxCell id="N-XDdZ0_NrzwJ06vWBmq-37" value="" style="endArrow=classic;html=1;rounded=0;entryX=1;entryY=0.5;entryDx=0;entryDy=0;" parent="1" target="N-XDdZ0_NrzwJ06vWBmq-40" edge="1">
                    <mxGeometry width="50" height="50" relative="1" as="geometry">
                        <mxPoint x="700" y="430" as="sourcePoint"/>
                        <mxPoint x="700" y="540" as="targetPoint"/>
                        <Array as="points">
                            <mxPoint x="700" y="550"/>
                        </Array>
                    </mxGeometry>
                </mxCell>
                <mxCell id="N-XDdZ0_NrzwJ06vWBmq-38" style="edgeStyle=orthogonalEdgeStyle;rounded=0;orthogonalLoop=1;jettySize=auto;html=1;entryX=0.5;entryY=1;entryDx=0;entryDy=0;" parent="1" source="N-XDdZ0_NrzwJ06vWBmq-40" target="N-XDdZ0_NrzwJ06vWBmq-26" edge="1">
                    <mxGeometry relative="1" as="geometry"/>
                </mxCell>
                <mxCell id="N-XDdZ0_NrzwJ06vWBmq-39" value="Spannungen anpassen" style="edgeLabel;html=1;align=center;verticalAlign=middle;resizable=0;points=[];" parent="N-XDdZ0_NrzwJ06vWBmq-38" vertex="1" connectable="0">
                    <mxGeometry x="-0.1744" relative="1" as="geometry">
                        <mxPoint x="20" y="-1" as="offset"/>
                    </mxGeometry>
                </mxCell>
                <mxCell id="N-XDdZ0_NrzwJ06vWBmq-40" value="Ultraschallsensoren" style="rounded=0;whiteSpace=wrap;html=1;" parent="1" vertex="1">
                    <mxGeometry x="480" y="530" width="120" height="40" as="geometry"/>
                </mxCell>
            </root>
        </mxGraphModel>
    </diagram>
    <diagram name="Regelkreise Turn Right / Turn Left" id="Tj1A0St88yeUNrKVHTIq">
        <mxGraphModel dx="1273" dy="895" grid="1" gridSize="10" guides="1" tooltips="1" connect="1" arrows="1" fold="1" page="1" pageScale="1" pageWidth="827" pageHeight="1169" math="0" shadow="0">
            <root>
                <mxCell id="DYyplHVgY40gLAPhu1BG-0"/>
                <mxCell id="DYyplHVgY40gLAPhu1BG-1" parent="DYyplHVgY40gLAPhu1BG-0"/>
                <mxCell id="DYyplHVgY40gLAPhu1BG-2" style="edgeStyle=orthogonalEdgeStyle;rounded=0;orthogonalLoop=1;jettySize=auto;html=1;" parent="DYyplHVgY40gLAPhu1BG-1" source="DYyplHVgY40gLAPhu1BG-4" edge="1">
                    <mxGeometry relative="1" as="geometry">
                        <mxPoint x="372" y="139" as="targetPoint"/>
                    </mxGeometry>
                </mxCell>
                <mxCell id="DYyplHVgY40gLAPhu1BG-3" value="Regelabweichung" style="edgeLabel;html=1;align=center;verticalAlign=middle;resizable=0;points=[];" parent="DYyplHVgY40gLAPhu1BG-2" vertex="1" connectable="0">
                    <mxGeometry x="-0.3169" y="-2" relative="1" as="geometry">
                        <mxPoint x="21" y="-2" as="offset"/>
                    </mxGeometry>
                </mxCell>
                <mxCell id="DYyplHVgY40gLAPhu1BG-4" value="" style="ellipse;" parent="DYyplHVgY40gLAPhu1BG-1" vertex="1">
                    <mxGeometry x="207" y="125" width="30" height="30" as="geometry"/>
                </mxCell>
                <mxCell id="DYyplHVgY40gLAPhu1BG-5" value="" style="endArrow=classic;html=1;rounded=0;entryX=0;entryY=0.5;entryDx=0;entryDy=0;" parent="DYyplHVgY40gLAPhu1BG-1" edge="1">
                    <mxGeometry width="50" height="50" relative="1" as="geometry">
                        <mxPoint x="17" y="139.76" as="sourcePoint"/>
                        <mxPoint x="206.999999999985" y="139.76" as="targetPoint"/>
                    </mxGeometry>
                </mxCell>
                <mxCell id="DYyplHVgY40gLAPhu1BG-6" value="Drehzahl links = Drehzahl rechts + X" style="edgeLabel;html=1;align=center;verticalAlign=middle;resizable=0;points=[];" parent="DYyplHVgY40gLAPhu1BG-5" vertex="1" connectable="0">
                    <mxGeometry x="-0.1298" y="1" relative="1" as="geometry">
                        <mxPoint x="-4" y="1" as="offset"/>
                    </mxGeometry>
                </mxCell>
                <mxCell id="DYyplHVgY40gLAPhu1BG-7" style="edgeStyle=orthogonalEdgeStyle;rounded=0;orthogonalLoop=1;jettySize=auto;html=1;" parent="DYyplHVgY40gLAPhu1BG-1" source="DYyplHVgY40gLAPhu1BG-9" edge="1">
                    <mxGeometry relative="1" as="geometry">
                        <mxPoint x="602" y="140" as="targetPoint"/>
                    </mxGeometry>
                </mxCell>
                <mxCell id="DYyplHVgY40gLAPhu1BG-8" value="Motorspannungen" style="edgeLabel;html=1;align=center;verticalAlign=middle;resizable=0;points=[];" parent="DYyplHVgY40gLAPhu1BG-7" vertex="1" connectable="0">
                    <mxGeometry x="-0.1719" relative="1" as="geometry">
                        <mxPoint x="8" as="offset"/>
                    </mxGeometry>
                </mxCell>
                <mxCell id="DYyplHVgY40gLAPhu1BG-9" value="Regler" style="rounded=0;whiteSpace=wrap;html=1;" parent="DYyplHVgY40gLAPhu1BG-1" vertex="1">
                    <mxGeometry x="372" y="120" width="90" height="40" as="geometry"/>
                </mxCell>
                <mxCell id="DYyplHVgY40gLAPhu1BG-10" value="Motoren" style="rounded=0;whiteSpace=wrap;html=1;" parent="DYyplHVgY40gLAPhu1BG-1" vertex="1">
                    <mxGeometry x="602" y="120" width="90" height="40" as="geometry"/>
                </mxCell>
                <mxCell id="DYyplHVgY40gLAPhu1BG-11" value="" style="endArrow=classic;html=1;rounded=0;entryX=0.5;entryY=0;entryDx=0;entryDy=0;" parent="DYyplHVgY40gLAPhu1BG-1" target="DYyplHVgY40gLAPhu1BG-10" edge="1">
                    <mxGeometry width="50" height="50" relative="1" as="geometry">
                        <mxPoint x="647" y="70" as="sourcePoint"/>
                        <mxPoint x="662" y="30" as="targetPoint"/>
                    </mxGeometry>
                </mxCell>
                <mxCell id="DYyplHVgY40gLAPhu1BG-12" value="&lt;div&gt;Störgröße&lt;/div&gt;Unterschiede in der Motormechanik" style="text;html=1;align=right;verticalAlign=middle;resizable=0;points=[];autosize=1;strokeColor=none;fillColor=none;" parent="DYyplHVgY40gLAPhu1BG-1" vertex="1">
                    <mxGeometry x="432" y="70" width="210" height="40" as="geometry"/>
                </mxCell>
                <mxCell id="DYyplHVgY40gLAPhu1BG-13" value="" style="endArrow=classic;html=1;rounded=0;exitX=1;exitY=0.5;exitDx=0;exitDy=0;" parent="DYyplHVgY40gLAPhu1BG-1" source="DYyplHVgY40gLAPhu1BG-10" edge="1">
                    <mxGeometry width="50" height="50" relative="1" as="geometry">
                        <mxPoint x="762" y="170" as="sourcePoint"/>
                        <mxPoint x="812" y="140" as="targetPoint"/>
                    </mxGeometry>
                </mxCell>
                <mxCell id="DYyplHVgY40gLAPhu1BG-14" value="Drezahldifferenz" style="edgeLabel;html=1;align=center;verticalAlign=middle;resizable=0;points=[];" parent="DYyplHVgY40gLAPhu1BG-13" vertex="1" connectable="0">
                    <mxGeometry x="-0.2135" y="1" relative="1" as="geometry">
                        <mxPoint x="16" as="offset"/>
                    </mxGeometry>
                </mxCell>
                <mxCell id="DYyplHVgY40gLAPhu1BG-15" value="" style="endArrow=classic;html=1;rounded=0;entryX=1;entryY=0.5;entryDx=0;entryDy=0;" parent="DYyplHVgY40gLAPhu1BG-1" target="DYyplHVgY40gLAPhu1BG-18" edge="1">
                    <mxGeometry width="50" height="50" relative="1" as="geometry">
                        <mxPoint x="702" y="140" as="sourcePoint"/>
                        <mxPoint x="702" y="250" as="targetPoint"/>
                        <Array as="points">
                            <mxPoint x="702" y="260"/>
                        </Array>
                    </mxGeometry>
                </mxCell>
                <mxCell id="DYyplHVgY40gLAPhu1BG-16" style="edgeStyle=orthogonalEdgeStyle;rounded=0;orthogonalLoop=1;jettySize=auto;html=1;entryX=0.5;entryY=1;entryDx=0;entryDy=0;" parent="DYyplHVgY40gLAPhu1BG-1" source="DYyplHVgY40gLAPhu1BG-18" target="DYyplHVgY40gLAPhu1BG-4" edge="1">
                    <mxGeometry relative="1" as="geometry"/>
                </mxCell>
                <mxCell id="DYyplHVgY40gLAPhu1BG-17" value="Spannungen anpassen" style="edgeLabel;html=1;align=center;verticalAlign=middle;resizable=0;points=[];" parent="DYyplHVgY40gLAPhu1BG-16" vertex="1" connectable="0">
                    <mxGeometry x="-0.1744" relative="1" as="geometry">
                        <mxPoint x="20" as="offset"/>
                    </mxGeometry>
                </mxCell>
                <mxCell id="DYyplHVgY40gLAPhu1BG-18" value="Drehzahlsensoren" style="rounded=0;whiteSpace=wrap;html=1;" parent="DYyplHVgY40gLAPhu1BG-1" vertex="1">
                    <mxGeometry x="482" y="240" width="110" height="40" as="geometry"/>
                </mxCell>
                <mxCell id="DYyplHVgY40gLAPhu1BG-19" style="edgeStyle=orthogonalEdgeStyle;rounded=0;orthogonalLoop=1;jettySize=auto;html=1;" parent="DYyplHVgY40gLAPhu1BG-1" source="DYyplHVgY40gLAPhu1BG-21" edge="1">
                    <mxGeometry relative="1" as="geometry">
                        <mxPoint x="372" y="429" as="targetPoint"/>
                    </mxGeometry>
                </mxCell>
                <mxCell id="DYyplHVgY40gLAPhu1BG-20" value="Regelabweichung" style="edgeLabel;html=1;align=center;verticalAlign=middle;resizable=0;points=[];" parent="DYyplHVgY40gLAPhu1BG-19" vertex="1" connectable="0">
                    <mxGeometry x="-0.3169" y="-2" relative="1" as="geometry">
                        <mxPoint x="21" y="-2" as="offset"/>
                    </mxGeometry>
                </mxCell>
                <mxCell id="DYyplHVgY40gLAPhu1BG-21" value="" style="ellipse;" parent="DYyplHVgY40gLAPhu1BG-1" vertex="1">
                    <mxGeometry x="207" y="415" width="30" height="30" as="geometry"/>
                </mxCell>
                <mxCell id="DYyplHVgY40gLAPhu1BG-22" value="" style="endArrow=classic;html=1;rounded=0;entryX=0;entryY=0.5;entryDx=0;entryDy=0;" parent="DYyplHVgY40gLAPhu1BG-1" edge="1">
                    <mxGeometry width="50" height="50" relative="1" as="geometry">
                        <mxPoint x="17" y="429.76" as="sourcePoint"/>
                        <mxPoint x="206.999999999985" y="429.76" as="targetPoint"/>
                    </mxGeometry>
                </mxCell>
                <mxCell id="DYyplHVgY40gLAPhu1BG-23" value="Abstand links = Abstand rechts + X" style="edgeLabel;html=1;align=center;verticalAlign=middle;resizable=0;points=[];" parent="DYyplHVgY40gLAPhu1BG-22" vertex="1" connectable="0">
                    <mxGeometry x="-0.1298" y="1" relative="1" as="geometry">
                        <mxPoint x="-3" y="1" as="offset"/>
                    </mxGeometry>
                </mxCell>
                <mxCell id="DYyplHVgY40gLAPhu1BG-24" style="edgeStyle=orthogonalEdgeStyle;rounded=0;orthogonalLoop=1;jettySize=auto;html=1;" parent="DYyplHVgY40gLAPhu1BG-1" source="DYyplHVgY40gLAPhu1BG-26" edge="1">
                    <mxGeometry relative="1" as="geometry">
                        <mxPoint x="602" y="430" as="targetPoint"/>
                    </mxGeometry>
                </mxCell>
                <mxCell id="DYyplHVgY40gLAPhu1BG-25" value="Motorspannungen" style="edgeLabel;html=1;align=center;verticalAlign=middle;resizable=0;points=[];" parent="DYyplHVgY40gLAPhu1BG-24" vertex="1" connectable="0">
                    <mxGeometry x="-0.1719" relative="1" as="geometry">
                        <mxPoint x="8" as="offset"/>
                    </mxGeometry>
                </mxCell>
                <mxCell id="DYyplHVgY40gLAPhu1BG-26" value="Regler" style="rounded=0;whiteSpace=wrap;html=1;" parent="DYyplHVgY40gLAPhu1BG-1" vertex="1">
                    <mxGeometry x="372" y="410" width="90" height="40" as="geometry"/>
                </mxCell>
                <mxCell id="DYyplHVgY40gLAPhu1BG-27" value="Motoren" style="rounded=0;whiteSpace=wrap;html=1;" parent="DYyplHVgY40gLAPhu1BG-1" vertex="1">
                    <mxGeometry x="602" y="410" width="90" height="40" as="geometry"/>
                </mxCell>
                <mxCell id="DYyplHVgY40gLAPhu1BG-28" value="" style="endArrow=classic;html=1;rounded=0;entryX=0.5;entryY=0;entryDx=0;entryDy=0;" parent="DYyplHVgY40gLAPhu1BG-1" target="DYyplHVgY40gLAPhu1BG-27" edge="1">
                    <mxGeometry width="50" height="50" relative="1" as="geometry">
                        <mxPoint x="647" y="360" as="sourcePoint"/>
                        <mxPoint x="662" y="320" as="targetPoint"/>
                    </mxGeometry>
                </mxCell>
                <mxCell id="DYyplHVgY40gLAPhu1BG-29" value="&lt;div&gt;Störgröße&lt;/div&gt;Unterschiede in der Motormechanik" style="text;html=1;align=right;verticalAlign=middle;resizable=0;points=[];autosize=1;strokeColor=none;fillColor=none;" parent="DYyplHVgY40gLAPhu1BG-1" vertex="1">
                    <mxGeometry x="432" y="360" width="210" height="40" as="geometry"/>
                </mxCell>
                <mxCell id="DYyplHVgY40gLAPhu1BG-30" value="" style="endArrow=classic;html=1;rounded=0;exitX=1;exitY=0.5;exitDx=0;exitDy=0;" parent="DYyplHVgY40gLAPhu1BG-1" source="DYyplHVgY40gLAPhu1BG-27" edge="1">
                    <mxGeometry width="50" height="50" relative="1" as="geometry">
                        <mxPoint x="762" y="460" as="sourcePoint"/>
                        <mxPoint x="812" y="430" as="targetPoint"/>
                    </mxGeometry>
                </mxCell>
                <mxCell id="DYyplHVgY40gLAPhu1BG-31" value="Abstandsdifferenz" style="edgeLabel;html=1;align=center;verticalAlign=middle;resizable=0;points=[];" parent="DYyplHVgY40gLAPhu1BG-30" vertex="1" connectable="0">
                    <mxGeometry x="-0.2135" y="1" relative="1" as="geometry">
                        <mxPoint x="16" as="offset"/>
                    </mxGeometry>
                </mxCell>
                <mxCell id="DYyplHVgY40gLAPhu1BG-32" value="" style="endArrow=classic;html=1;rounded=0;entryX=1;entryY=0.5;entryDx=0;entryDy=0;" parent="DYyplHVgY40gLAPhu1BG-1" target="DYyplHVgY40gLAPhu1BG-35" edge="1">
                    <mxGeometry width="50" height="50" relative="1" as="geometry">
                        <mxPoint x="702" y="430" as="sourcePoint"/>
                        <mxPoint x="702" y="540" as="targetPoint"/>
                        <Array as="points">
                            <mxPoint x="702" y="550"/>
                        </Array>
                    </mxGeometry>
                </mxCell>
                <mxCell id="DYyplHVgY40gLAPhu1BG-33" style="edgeStyle=orthogonalEdgeStyle;rounded=0;orthogonalLoop=1;jettySize=auto;html=1;entryX=0.5;entryY=1;entryDx=0;entryDy=0;" parent="DYyplHVgY40gLAPhu1BG-1" source="DYyplHVgY40gLAPhu1BG-35" target="DYyplHVgY40gLAPhu1BG-21" edge="1">
                    <mxGeometry relative="1" as="geometry"/>
                </mxCell>
                <mxCell id="DYyplHVgY40gLAPhu1BG-34" value="Spannungen anpassen" style="edgeLabel;html=1;align=center;verticalAlign=middle;resizable=0;points=[];" parent="DYyplHVgY40gLAPhu1BG-33" vertex="1" connectable="0">
                    <mxGeometry x="-0.1744" relative="1" as="geometry">
                        <mxPoint x="20" as="offset"/>
                    </mxGeometry>
                </mxCell>
                <mxCell id="DYyplHVgY40gLAPhu1BG-35" value="Ultraschallsensoren" style="rounded=0;whiteSpace=wrap;html=1;" parent="DYyplHVgY40gLAPhu1BG-1" vertex="1">
                    <mxGeometry x="482" y="530" width="120" height="40" as="geometry"/>
                </mxCell>
            </root>
        </mxGraphModel>
    </diagram>
    <diagram id="4KCQyiTTcL8Klsepwhj9" name="Aktivitätsdiagramme">
        <mxGraphModel dx="1910" dy="1343" grid="1" gridSize="10" guides="1" tooltips="1" connect="1" arrows="1" fold="1" page="1" pageScale="1" pageWidth="850" pageHeight="1100" math="0" shadow="0">
            <root>
                <mxCell id="0"/>
                <mxCell id="1" parent="0"/>
                <mxCell id="KqUMBvsEmXHGLuhhKuEz-1" value="&lt;u&gt;&lt;b&gt;Move Forward&lt;/b&gt;&lt;/u&gt;" style="html=1;align=center;verticalAlign=top;rounded=1;absoluteArcSize=1;arcSize=10;dashed=0;whiteSpace=wrap;" parent="1" vertex="1">
                    <mxGeometry x="30" y="20" width="790" height="330" as="geometry"/>
                </mxCell>
                <mxCell id="KqUMBvsEmXHGLuhhKuEz-2" style="edgeStyle=orthogonalEdgeStyle;rounded=0;orthogonalLoop=1;jettySize=auto;html=1;entryX=0;entryY=0.5;entryDx=0;entryDy=0;" parent="1" source="KqUMBvsEmXHGLuhhKuEz-3" target="KqUMBvsEmXHGLuhhKuEz-5" edge="1">
                    <mxGeometry relative="1" as="geometry">
                        <mxPoint x="99" y="255" as="targetPoint"/>
                    </mxGeometry>
                </mxCell>
                <mxCell id="KqUMBvsEmXHGLuhhKuEz-3" value="" style="ellipse;fillColor=strokeColor;html=1;" parent="1" vertex="1">
                    <mxGeometry x="66" y="240" width="30" height="30" as="geometry"/>
                </mxCell>
                <mxCell id="KqUMBvsEmXHGLuhhKuEz-4" style="edgeStyle=orthogonalEdgeStyle;rounded=0;orthogonalLoop=1;jettySize=auto;html=1;entryX=0;entryY=0.5;entryDx=0;entryDy=0;" parent="1" source="KqUMBvsEmXHGLuhhKuEz-5" target="KqUMBvsEmXHGLuhhKuEz-7" edge="1">
                    <mxGeometry relative="1" as="geometry">
                        <mxPoint x="349" y="255" as="targetPoint"/>
                    </mxGeometry>
                </mxCell>
                <mxCell id="KqUMBvsEmXHGLuhhKuEz-5" value="Spannung rechts und links positiv" style="html=1;align=center;verticalAlign=top;rounded=1;absoluteArcSize=1;arcSize=10;dashed=0;whiteSpace=wrap;" parent="1" vertex="1">
                    <mxGeometry x="129" y="235" width="140" height="40" as="geometry"/>
                </mxCell>
                <mxCell id="KqUMBvsEmXHGLuhhKuEz-6" style="edgeStyle=orthogonalEdgeStyle;rounded=0;orthogonalLoop=1;jettySize=auto;html=1;entryX=0;entryY=0.5;entryDx=0;entryDy=0;" parent="1" source="KqUMBvsEmXHGLuhhKuEz-7" target="KqUMBvsEmXHGLuhhKuEz-14" edge="1">
                    <mxGeometry relative="1" as="geometry"/>
                </mxCell>
                <mxCell id="KqUMBvsEmXHGLuhhKuEz-7" value="Drehzahlmessung rechts und links" style="html=1;align=center;verticalAlign=top;rounded=1;absoluteArcSize=1;arcSize=10;dashed=0;whiteSpace=wrap;" parent="1" vertex="1">
                    <mxGeometry x="379" y="235" width="140" height="40" as="geometry"/>
                </mxCell>
                <mxCell id="KqUMBvsEmXHGLuhhKuEz-8" style="edgeStyle=orthogonalEdgeStyle;rounded=0;orthogonalLoop=1;jettySize=auto;html=1;entryX=1;entryY=0.5;entryDx=0;entryDy=0;exitX=0.5;exitY=0;exitDx=0;exitDy=0;" parent="1" source="KqUMBvsEmXHGLuhhKuEz-14" target="KqUMBvsEmXHGLuhhKuEz-16" edge="1">
                    <mxGeometry relative="1" as="geometry">
                        <mxPoint x="624" y="190" as="targetPoint"/>
                        <Array as="points">
                            <mxPoint x="624" y="182"/>
                        </Array>
                    </mxGeometry>
                </mxCell>
                <mxCell id="KqUMBvsEmXHGLuhhKuEz-9" value="links &amp;gt; rechts" style="edgeLabel;html=1;align=center;verticalAlign=middle;resizable=0;points=[];" parent="KqUMBvsEmXHGLuhhKuEz-8" vertex="1" connectable="0">
                    <mxGeometry x="-0.2278" relative="1" as="geometry">
                        <mxPoint x="6" y="30" as="offset"/>
                    </mxGeometry>
                </mxCell>
                <mxCell id="KqUMBvsEmXHGLuhhKuEz-10" style="edgeStyle=orthogonalEdgeStyle;rounded=0;orthogonalLoop=1;jettySize=auto;html=1;entryX=0;entryY=0.5;entryDx=0;entryDy=0;" parent="1" source="KqUMBvsEmXHGLuhhKuEz-14" target="KqUMBvsEmXHGLuhhKuEz-19" edge="1">
                    <mxGeometry relative="1" as="geometry">
                        <mxPoint x="624" y="330" as="targetPoint"/>
                        <Array as="points">
                            <mxPoint x="624" y="290"/>
                            <mxPoint x="770" y="290"/>
                            <mxPoint x="770" y="70"/>
                            <mxPoint x="140" y="70"/>
                            <mxPoint x="140" y="182"/>
                        </Array>
                    </mxGeometry>
                </mxCell>
                <mxCell id="KqUMBvsEmXHGLuhhKuEz-11" value="else" style="edgeLabel;html=1;align=center;verticalAlign=middle;resizable=0;points=[];" parent="KqUMBvsEmXHGLuhhKuEz-10" vertex="1" connectable="0">
                    <mxGeometry x="-0.1406" y="1" relative="1" as="geometry">
                        <mxPoint x="-14" y="219" as="offset"/>
                    </mxGeometry>
                </mxCell>
                <mxCell id="KqUMBvsEmXHGLuhhKuEz-12" style="edgeStyle=orthogonalEdgeStyle;rounded=0;orthogonalLoop=1;jettySize=auto;html=1;entryX=1;entryY=0.5;entryDx=0;entryDy=0;" parent="1" source="KqUMBvsEmXHGLuhhKuEz-14" target="KqUMBvsEmXHGLuhhKuEz-18" edge="1">
                    <mxGeometry relative="1" as="geometry">
                        <mxPoint x="829" y="255" as="targetPoint"/>
                        <Array as="points">
                            <mxPoint x="729" y="255"/>
                            <mxPoint x="729" y="110"/>
                        </Array>
                    </mxGeometry>
                </mxCell>
                <mxCell id="KqUMBvsEmXHGLuhhKuEz-13" value="links &amp;lt; rechts" style="edgeLabel;html=1;align=center;verticalAlign=middle;resizable=0;points=[];" parent="KqUMBvsEmXHGLuhhKuEz-12" vertex="1" connectable="0">
                    <mxGeometry x="-0.3341" y="-1" relative="1" as="geometry">
                        <mxPoint x="-50" y="56" as="offset"/>
                    </mxGeometry>
                </mxCell>
                <mxCell id="KqUMBvsEmXHGLuhhKuEz-14" value="" style="rhombus;" parent="1" vertex="1">
                    <mxGeometry x="609" y="240" width="30" height="30" as="geometry"/>
                </mxCell>
                <mxCell id="KqUMBvsEmXHGLuhhKuEz-15" style="edgeStyle=orthogonalEdgeStyle;rounded=0;orthogonalLoop=1;jettySize=auto;html=1;entryX=1;entryY=0.5;entryDx=0;entryDy=0;" parent="1" source="KqUMBvsEmXHGLuhhKuEz-16" target="KqUMBvsEmXHGLuhhKuEz-19" edge="1">
                    <mxGeometry relative="1" as="geometry"/>
                </mxCell>
                <mxCell id="KqUMBvsEmXHGLuhhKuEz-16" value="verringere links / erhöhe rechts" style="html=1;align=center;verticalAlign=top;rounded=1;absoluteArcSize=1;arcSize=10;dashed=0;whiteSpace=wrap;" parent="1" vertex="1">
                    <mxGeometry x="379" y="162" width="140" height="40" as="geometry"/>
                </mxCell>
                <mxCell id="KqUMBvsEmXHGLuhhKuEz-17" style="edgeStyle=orthogonalEdgeStyle;rounded=0;orthogonalLoop=1;jettySize=auto;html=1;entryX=0.5;entryY=0;entryDx=0;entryDy=0;" parent="1" source="KqUMBvsEmXHGLuhhKuEz-19" target="KqUMBvsEmXHGLuhhKuEz-5" edge="1">
                    <mxGeometry relative="1" as="geometry">
                        <mxPoint x="209" y="160" as="targetPoint"/>
                    </mxGeometry>
                </mxCell>
                <mxCell id="KqUMBvsEmXHGLuhhKuEz-18" value="erhöhe links / verringere rechts" style="html=1;align=center;verticalAlign=top;rounded=1;absoluteArcSize=1;arcSize=10;dashed=0;whiteSpace=wrap;" parent="1" vertex="1">
                    <mxGeometry x="379" y="90" width="140" height="40" as="geometry"/>
                </mxCell>
                <mxCell id="KqUMBvsEmXHGLuhhKuEz-20" value="" style="edgeStyle=orthogonalEdgeStyle;rounded=0;orthogonalLoop=1;jettySize=auto;html=1;entryX=0.5;entryY=0;entryDx=0;entryDy=0;" parent="1" source="KqUMBvsEmXHGLuhhKuEz-18" target="KqUMBvsEmXHGLuhhKuEz-19" edge="1">
                    <mxGeometry relative="1" as="geometry">
                        <mxPoint x="199" y="235" as="targetPoint"/>
                        <mxPoint x="379" y="110" as="sourcePoint"/>
                    </mxGeometry>
                </mxCell>
                <mxCell id="KqUMBvsEmXHGLuhhKuEz-19" value="" style="rhombus;" parent="1" vertex="1">
                    <mxGeometry x="184" y="167" width="30" height="30" as="geometry"/>
                </mxCell>
                <mxCell id="KqUMBvsEmXHGLuhhKuEz-21" value="&lt;u&gt;&lt;b&gt;Turn Right&lt;/b&gt;&lt;/u&gt;" style="html=1;align=center;verticalAlign=top;rounded=1;absoluteArcSize=1;arcSize=10;dashed=0;whiteSpace=wrap;" parent="1" vertex="1">
                    <mxGeometry x="30" y="385" width="790" height="330" as="geometry"/>
                </mxCell>
                <mxCell id="KqUMBvsEmXHGLuhhKuEz-22" style="edgeStyle=orthogonalEdgeStyle;rounded=0;orthogonalLoop=1;jettySize=auto;html=1;entryX=0;entryY=0.5;entryDx=0;entryDy=0;" parent="1" source="KqUMBvsEmXHGLuhhKuEz-23" target="KqUMBvsEmXHGLuhhKuEz-25" edge="1">
                    <mxGeometry relative="1" as="geometry">
                        <mxPoint x="99" y="620" as="targetPoint"/>
                    </mxGeometry>
                </mxCell>
                <mxCell id="KqUMBvsEmXHGLuhhKuEz-23" value="" style="ellipse;fillColor=strokeColor;html=1;" parent="1" vertex="1">
                    <mxGeometry x="66" y="605" width="30" height="30" as="geometry"/>
                </mxCell>
                <mxCell id="KqUMBvsEmXHGLuhhKuEz-24" style="edgeStyle=orthogonalEdgeStyle;rounded=0;orthogonalLoop=1;jettySize=auto;html=1;entryX=0;entryY=0.5;entryDx=0;entryDy=0;" parent="1" source="KqUMBvsEmXHGLuhhKuEz-25" target="KqUMBvsEmXHGLuhhKuEz-27" edge="1">
                    <mxGeometry relative="1" as="geometry">
                        <mxPoint x="349" y="620" as="targetPoint"/>
                    </mxGeometry>
                </mxCell>
                <mxCell id="KqUMBvsEmXHGLuhhKuEz-25" value="Spannung rechts negativ und links positiv" style="html=1;align=center;verticalAlign=top;rounded=1;absoluteArcSize=1;arcSize=10;dashed=0;whiteSpace=wrap;" parent="1" vertex="1">
                    <mxGeometry x="129" y="600" width="140" height="40" as="geometry"/>
                </mxCell>
                <mxCell id="KqUMBvsEmXHGLuhhKuEz-26" style="edgeStyle=orthogonalEdgeStyle;rounded=0;orthogonalLoop=1;jettySize=auto;html=1;entryX=0;entryY=0.5;entryDx=0;entryDy=0;" parent="1" source="KqUMBvsEmXHGLuhhKuEz-27" target="KqUMBvsEmXHGLuhhKuEz-34" edge="1">
                    <mxGeometry relative="1" as="geometry"/>
                </mxCell>
                <mxCell id="KqUMBvsEmXHGLuhhKuEz-27" value="Drehzahlmessung rechts und links" style="html=1;align=center;verticalAlign=top;rounded=1;absoluteArcSize=1;arcSize=10;dashed=0;whiteSpace=wrap;" parent="1" vertex="1">
                    <mxGeometry x="379" y="600" width="140" height="40" as="geometry"/>
                </mxCell>
                <mxCell id="KqUMBvsEmXHGLuhhKuEz-28" style="edgeStyle=orthogonalEdgeStyle;rounded=0;orthogonalLoop=1;jettySize=auto;html=1;entryX=1;entryY=0.5;entryDx=0;entryDy=0;exitX=0.5;exitY=0;exitDx=0;exitDy=0;" parent="1" source="KqUMBvsEmXHGLuhhKuEz-34" target="KqUMBvsEmXHGLuhhKuEz-36" edge="1">
                    <mxGeometry relative="1" as="geometry">
                        <mxPoint x="624" y="555" as="targetPoint"/>
                        <Array as="points">
                            <mxPoint x="615" y="547"/>
                        </Array>
                    </mxGeometry>
                </mxCell>
                <mxCell id="KqUMBvsEmXHGLuhhKuEz-29" value="links &amp;gt; rechts" style="edgeLabel;html=1;align=center;verticalAlign=middle;resizable=0;points=[];" parent="KqUMBvsEmXHGLuhhKuEz-28" vertex="1" connectable="0">
                    <mxGeometry x="-0.2278" relative="1" as="geometry">
                        <mxPoint x="6" y="30" as="offset"/>
                    </mxGeometry>
                </mxCell>
                <mxCell id="KqUMBvsEmXHGLuhhKuEz-30" style="edgeStyle=orthogonalEdgeStyle;rounded=0;orthogonalLoop=1;jettySize=auto;html=1;entryX=0;entryY=0.5;entryDx=0;entryDy=0;exitX=0.5;exitY=1;exitDx=0;exitDy=0;" parent="1" source="KqUMBvsEmXHGLuhhKuEz-34" target="KqUMBvsEmXHGLuhhKuEz-40" edge="1">
                    <mxGeometry relative="1" as="geometry">
                        <mxPoint x="624" y="695" as="targetPoint"/>
                        <Array as="points">
                            <mxPoint x="615" y="655"/>
                            <mxPoint x="770" y="655"/>
                            <mxPoint x="770" y="435"/>
                            <mxPoint x="140" y="435"/>
                            <mxPoint x="140" y="547"/>
                        </Array>
                    </mxGeometry>
                </mxCell>
                <mxCell id="KqUMBvsEmXHGLuhhKuEz-31" value="else" style="edgeLabel;html=1;align=center;verticalAlign=middle;resizable=0;points=[];" parent="KqUMBvsEmXHGLuhhKuEz-30" vertex="1" connectable="0">
                    <mxGeometry x="-0.1406" y="1" relative="1" as="geometry">
                        <mxPoint x="-14" y="219" as="offset"/>
                    </mxGeometry>
                </mxCell>
                <mxCell id="KqUMBvsEmXHGLuhhKuEz-32" style="edgeStyle=orthogonalEdgeStyle;rounded=0;orthogonalLoop=1;jettySize=auto;html=1;entryX=1;entryY=0.5;entryDx=0;entryDy=0;" parent="1" source="KqUMBvsEmXHGLuhhKuEz-34" target="KqUMBvsEmXHGLuhhKuEz-38" edge="1">
                    <mxGeometry relative="1" as="geometry">
                        <mxPoint x="829" y="620" as="targetPoint"/>
                        <Array as="points">
                            <mxPoint x="729" y="620"/>
                            <mxPoint x="729" y="475"/>
                        </Array>
                    </mxGeometry>
                </mxCell>
                <mxCell id="KqUMBvsEmXHGLuhhKuEz-33" value="links &amp;lt; rechts" style="edgeLabel;html=1;align=center;verticalAlign=middle;resizable=0;points=[];" parent="KqUMBvsEmXHGLuhhKuEz-32" vertex="1" connectable="0">
                    <mxGeometry x="-0.3341" y="-1" relative="1" as="geometry">
                        <mxPoint x="-50" y="52" as="offset"/>
                    </mxGeometry>
                </mxCell>
                <mxCell id="KqUMBvsEmXHGLuhhKuEz-34" value="" style="rhombus;" parent="1" vertex="1">
                    <mxGeometry x="600" y="605" width="30" height="30" as="geometry"/>
                </mxCell>
                <mxCell id="KqUMBvsEmXHGLuhhKuEz-35" style="edgeStyle=orthogonalEdgeStyle;rounded=0;orthogonalLoop=1;jettySize=auto;html=1;entryX=1;entryY=0.5;entryDx=0;entryDy=0;" parent="1" source="KqUMBvsEmXHGLuhhKuEz-36" target="KqUMBvsEmXHGLuhhKuEz-40" edge="1">
                    <mxGeometry relative="1" as="geometry"/>
                </mxCell>
                <mxCell id="KqUMBvsEmXHGLuhhKuEz-36" value="verringere links / erhöhe rechts" style="html=1;align=center;verticalAlign=top;rounded=1;absoluteArcSize=1;arcSize=10;dashed=0;whiteSpace=wrap;" parent="1" vertex="1">
                    <mxGeometry x="379" y="527" width="140" height="40" as="geometry"/>
                </mxCell>
                <mxCell id="KqUMBvsEmXHGLuhhKuEz-37" style="edgeStyle=orthogonalEdgeStyle;rounded=0;orthogonalLoop=1;jettySize=auto;html=1;entryX=0.5;entryY=0;entryDx=0;entryDy=0;" parent="1" source="KqUMBvsEmXHGLuhhKuEz-40" target="KqUMBvsEmXHGLuhhKuEz-25" edge="1">
                    <mxGeometry relative="1" as="geometry">
                        <mxPoint x="209" y="525" as="targetPoint"/>
                    </mxGeometry>
                </mxCell>
                <mxCell id="KqUMBvsEmXHGLuhhKuEz-38" value="erhöhe links / verringere rechts" style="html=1;align=center;verticalAlign=top;rounded=1;absoluteArcSize=1;arcSize=10;dashed=0;whiteSpace=wrap;" parent="1" vertex="1">
                    <mxGeometry x="379" y="455" width="140" height="40" as="geometry"/>
                </mxCell>
                <mxCell id="KqUMBvsEmXHGLuhhKuEz-39" value="" style="edgeStyle=orthogonalEdgeStyle;rounded=0;orthogonalLoop=1;jettySize=auto;html=1;entryX=0.5;entryY=0;entryDx=0;entryDy=0;" parent="1" source="KqUMBvsEmXHGLuhhKuEz-38" target="KqUMBvsEmXHGLuhhKuEz-40" edge="1">
                    <mxGeometry relative="1" as="geometry">
                        <mxPoint x="199" y="600" as="targetPoint"/>
                        <mxPoint x="379" y="475" as="sourcePoint"/>
                    </mxGeometry>
                </mxCell>
                <mxCell id="KqUMBvsEmXHGLuhhKuEz-40" value="" style="rhombus;" parent="1" vertex="1">
                    <mxGeometry x="184" y="532" width="30" height="30" as="geometry"/>
                </mxCell>
                <mxCell id="KqUMBvsEmXHGLuhhKuEz-41" value="&lt;u&gt;&lt;b&gt;Turn Left&lt;/b&gt;&lt;/u&gt;" style="html=1;align=center;verticalAlign=top;rounded=1;absoluteArcSize=1;arcSize=10;dashed=0;whiteSpace=wrap;" parent="1" vertex="1">
                    <mxGeometry x="30" y="750" width="790" height="330" as="geometry"/>
                </mxCell>
                <mxCell id="KqUMBvsEmXHGLuhhKuEz-42" style="edgeStyle=orthogonalEdgeStyle;rounded=0;orthogonalLoop=1;jettySize=auto;html=1;entryX=0;entryY=0.5;entryDx=0;entryDy=0;" parent="1" source="KqUMBvsEmXHGLuhhKuEz-43" target="KqUMBvsEmXHGLuhhKuEz-45" edge="1">
                    <mxGeometry relative="1" as="geometry">
                        <mxPoint x="99" y="985" as="targetPoint"/>
                    </mxGeometry>
                </mxCell>
                <mxCell id="KqUMBvsEmXHGLuhhKuEz-43" value="" style="ellipse;fillColor=strokeColor;html=1;" parent="1" vertex="1">
                    <mxGeometry x="66" y="970" width="30" height="30" as="geometry"/>
                </mxCell>
                <mxCell id="KqUMBvsEmXHGLuhhKuEz-44" style="edgeStyle=orthogonalEdgeStyle;rounded=0;orthogonalLoop=1;jettySize=auto;html=1;entryX=0;entryY=0.5;entryDx=0;entryDy=0;" parent="1" source="KqUMBvsEmXHGLuhhKuEz-45" target="KqUMBvsEmXHGLuhhKuEz-47" edge="1">
                    <mxGeometry relative="1" as="geometry">
                        <mxPoint x="349" y="985" as="targetPoint"/>
                    </mxGeometry>
                </mxCell>
                <mxCell id="KqUMBvsEmXHGLuhhKuEz-45" value="Spannung rechts positiv und links negativ" style="html=1;align=center;verticalAlign=top;rounded=1;absoluteArcSize=1;arcSize=10;dashed=0;whiteSpace=wrap;" parent="1" vertex="1">
                    <mxGeometry x="129" y="965" width="140" height="40" as="geometry"/>
                </mxCell>
                <mxCell id="KqUMBvsEmXHGLuhhKuEz-46" style="edgeStyle=orthogonalEdgeStyle;rounded=0;orthogonalLoop=1;jettySize=auto;html=1;entryX=0;entryY=0.5;entryDx=0;entryDy=0;" parent="1" source="KqUMBvsEmXHGLuhhKuEz-47" target="KqUMBvsEmXHGLuhhKuEz-54" edge="1">
                    <mxGeometry relative="1" as="geometry"/>
                </mxCell>
                <mxCell id="KqUMBvsEmXHGLuhhKuEz-47" value="Drehzahlmessung rechts und links" style="html=1;align=center;verticalAlign=top;rounded=1;absoluteArcSize=1;arcSize=10;dashed=0;whiteSpace=wrap;" parent="1" vertex="1">
                    <mxGeometry x="379" y="965" width="140" height="40" as="geometry"/>
                </mxCell>
                <mxCell id="KqUMBvsEmXHGLuhhKuEz-48" style="edgeStyle=orthogonalEdgeStyle;rounded=0;orthogonalLoop=1;jettySize=auto;html=1;entryX=1;entryY=0.5;entryDx=0;entryDy=0;exitX=0.5;exitY=0;exitDx=0;exitDy=0;" parent="1" source="KqUMBvsEmXHGLuhhKuEz-54" target="KqUMBvsEmXHGLuhhKuEz-56" edge="1">
                    <mxGeometry relative="1" as="geometry">
                        <mxPoint x="624" y="920" as="targetPoint"/>
                        <Array as="points">
                            <mxPoint x="624" y="912"/>
                        </Array>
                    </mxGeometry>
                </mxCell>
                <mxCell id="KqUMBvsEmXHGLuhhKuEz-49" value="links &amp;gt; rechts" style="edgeLabel;html=1;align=center;verticalAlign=middle;resizable=0;points=[];" parent="KqUMBvsEmXHGLuhhKuEz-48" vertex="1" connectable="0">
                    <mxGeometry x="-0.2278" relative="1" as="geometry">
                        <mxPoint x="6" y="30" as="offset"/>
                    </mxGeometry>
                </mxCell>
                <mxCell id="KqUMBvsEmXHGLuhhKuEz-50" style="edgeStyle=orthogonalEdgeStyle;rounded=0;orthogonalLoop=1;jettySize=auto;html=1;entryX=0;entryY=0.5;entryDx=0;entryDy=0;" parent="1" source="KqUMBvsEmXHGLuhhKuEz-54" target="KqUMBvsEmXHGLuhhKuEz-60" edge="1">
                    <mxGeometry relative="1" as="geometry">
                        <mxPoint x="624" y="1060" as="targetPoint"/>
                        <Array as="points">
                            <mxPoint x="624" y="1020"/>
                            <mxPoint x="770" y="1020"/>
                            <mxPoint x="770" y="800"/>
                            <mxPoint x="140" y="800"/>
                            <mxPoint x="140" y="912"/>
                        </Array>
                    </mxGeometry>
                </mxCell>
                <mxCell id="KqUMBvsEmXHGLuhhKuEz-51" value="else" style="edgeLabel;html=1;align=center;verticalAlign=middle;resizable=0;points=[];" parent="KqUMBvsEmXHGLuhhKuEz-50" vertex="1" connectable="0">
                    <mxGeometry x="-0.1406" y="1" relative="1" as="geometry">
                        <mxPoint x="-14" y="219" as="offset"/>
                    </mxGeometry>
                </mxCell>
                <mxCell id="KqUMBvsEmXHGLuhhKuEz-52" style="edgeStyle=orthogonalEdgeStyle;rounded=0;orthogonalLoop=1;jettySize=auto;html=1;entryX=1;entryY=0.5;entryDx=0;entryDy=0;" parent="1" source="KqUMBvsEmXHGLuhhKuEz-54" target="KqUMBvsEmXHGLuhhKuEz-58" edge="1">
                    <mxGeometry relative="1" as="geometry">
                        <mxPoint x="829" y="985" as="targetPoint"/>
                        <Array as="points">
                            <mxPoint x="729" y="985"/>
                            <mxPoint x="729" y="840"/>
                        </Array>
                    </mxGeometry>
                </mxCell>
                <mxCell id="KqUMBvsEmXHGLuhhKuEz-53" value="links &amp;lt; rechts" style="edgeLabel;html=1;align=center;verticalAlign=middle;resizable=0;points=[];" parent="KqUMBvsEmXHGLuhhKuEz-52" vertex="1" connectable="0">
                    <mxGeometry x="-0.3341" y="-1" relative="1" as="geometry">
                        <mxPoint x="-50" y="56" as="offset"/>
                    </mxGeometry>
                </mxCell>
                <mxCell id="KqUMBvsEmXHGLuhhKuEz-54" value="" style="rhombus;" parent="1" vertex="1">
                    <mxGeometry x="609" y="970" width="30" height="30" as="geometry"/>
                </mxCell>
                <mxCell id="KqUMBvsEmXHGLuhhKuEz-55" style="edgeStyle=orthogonalEdgeStyle;rounded=0;orthogonalLoop=1;jettySize=auto;html=1;entryX=1;entryY=0.5;entryDx=0;entryDy=0;" parent="1" source="KqUMBvsEmXHGLuhhKuEz-56" target="KqUMBvsEmXHGLuhhKuEz-60" edge="1">
                    <mxGeometry relative="1" as="geometry"/>
                </mxCell>
                <mxCell id="KqUMBvsEmXHGLuhhKuEz-56" value="verringere links / erhöhe rechts" style="html=1;align=center;verticalAlign=top;rounded=1;absoluteArcSize=1;arcSize=10;dashed=0;whiteSpace=wrap;" parent="1" vertex="1">
                    <mxGeometry x="379" y="892" width="140" height="40" as="geometry"/>
                </mxCell>
                <mxCell id="KqUMBvsEmXHGLuhhKuEz-57" style="edgeStyle=orthogonalEdgeStyle;rounded=0;orthogonalLoop=1;jettySize=auto;html=1;entryX=0.5;entryY=0;entryDx=0;entryDy=0;" parent="1" source="KqUMBvsEmXHGLuhhKuEz-60" target="KqUMBvsEmXHGLuhhKuEz-45" edge="1">
                    <mxGeometry relative="1" as="geometry">
                        <mxPoint x="209" y="890" as="targetPoint"/>
                    </mxGeometry>
                </mxCell>
                <mxCell id="KqUMBvsEmXHGLuhhKuEz-58" value="erhöhe links / verringere rechts" style="html=1;align=center;verticalAlign=top;rounded=1;absoluteArcSize=1;arcSize=10;dashed=0;whiteSpace=wrap;" parent="1" vertex="1">
                    <mxGeometry x="379" y="820" width="140" height="40" as="geometry"/>
                </mxCell>
                <mxCell id="KqUMBvsEmXHGLuhhKuEz-59" value="" style="edgeStyle=orthogonalEdgeStyle;rounded=0;orthogonalLoop=1;jettySize=auto;html=1;entryX=0.5;entryY=0;entryDx=0;entryDy=0;" parent="1" source="KqUMBvsEmXHGLuhhKuEz-58" target="KqUMBvsEmXHGLuhhKuEz-60" edge="1">
                    <mxGeometry relative="1" as="geometry">
                        <mxPoint x="199" y="965" as="targetPoint"/>
                        <mxPoint x="379" y="840" as="sourcePoint"/>
                    </mxGeometry>
                </mxCell>
                <mxCell id="KqUMBvsEmXHGLuhhKuEz-60" value="" style="rhombus;" parent="1" vertex="1">
                    <mxGeometry x="184" y="897" width="30" height="30" as="geometry"/>
                </mxCell>
                <mxCell id="GK6k5ofdG1E72wdWJPs3-1" value="&lt;u&gt;&lt;b&gt;Move Forward&lt;/b&gt;&lt;/u&gt;" style="html=1;align=center;verticalAlign=top;rounded=1;absoluteArcSize=1;arcSize=10;dashed=0;whiteSpace=wrap;" parent="1" vertex="1">
                    <mxGeometry x="880" y="20" width="790" height="400" as="geometry"/>
                </mxCell>
                <mxCell id="GK6k5ofdG1E72wdWJPs3-2" style="edgeStyle=orthogonalEdgeStyle;rounded=0;orthogonalLoop=1;jettySize=auto;html=1;entryX=0;entryY=0.5;entryDx=0;entryDy=0;" parent="1" source="GK6k5ofdG1E72wdWJPs3-3" target="GK6k5ofdG1E72wdWJPs3-5" edge="1">
                    <mxGeometry relative="1" as="geometry">
                        <mxPoint x="949" y="255" as="targetPoint"/>
                    </mxGeometry>
                </mxCell>
                <mxCell id="GK6k5ofdG1E72wdWJPs3-3" value="" style="ellipse;fillColor=strokeColor;html=1;" parent="1" vertex="1">
                    <mxGeometry x="916" y="240" width="30" height="30" as="geometry"/>
                </mxCell>
                <mxCell id="GK6k5ofdG1E72wdWJPs3-4" style="edgeStyle=orthogonalEdgeStyle;rounded=0;orthogonalLoop=1;jettySize=auto;html=1;entryX=0.5;entryY=0;entryDx=0;entryDy=0;" parent="1" source="GK6k5ofdG1E72wdWJPs3-5" target="GK6k5ofdG1E72wdWJPs3-7" edge="1">
                    <mxGeometry relative="1" as="geometry">
                        <mxPoint x="1199" y="255" as="targetPoint"/>
                    </mxGeometry>
                </mxCell>
                <mxCell id="GK6k5ofdG1E72wdWJPs3-5" value="Spannung rechts und links positiv" style="html=1;align=center;verticalAlign=top;rounded=1;absoluteArcSize=1;arcSize=10;dashed=0;whiteSpace=wrap;" parent="1" vertex="1">
                    <mxGeometry x="979" y="235" width="140" height="40" as="geometry"/>
                </mxCell>
                <mxCell id="GK6k5ofdG1E72wdWJPs3-6" style="edgeStyle=orthogonalEdgeStyle;rounded=0;orthogonalLoop=1;jettySize=auto;html=1;entryX=0;entryY=0.5;entryDx=0;entryDy=0;" parent="1" source="GK6k5ofdG1E72wdWJPs3-7" target="GK6k5ofdG1E72wdWJPs3-21" edge="1">
                    <mxGeometry relative="1" as="geometry"/>
                </mxCell>
                <mxCell id="GK6k5ofdG1E72wdWJPs3-7" value="Drehzahlmessung rechts und links" style="html=1;align=center;verticalAlign=top;rounded=1;absoluteArcSize=1;arcSize=10;dashed=0;whiteSpace=wrap;" parent="1" vertex="1">
                    <mxGeometry x="979" y="310" width="140" height="40" as="geometry"/>
                </mxCell>
                <mxCell id="GK6k5ofdG1E72wdWJPs3-8" style="edgeStyle=orthogonalEdgeStyle;rounded=0;orthogonalLoop=1;jettySize=auto;html=1;entryX=1;entryY=0.5;entryDx=0;entryDy=0;exitX=0.5;exitY=0;exitDx=0;exitDy=0;" parent="1" source="GK6k5ofdG1E72wdWJPs3-14" target="GK6k5ofdG1E72wdWJPs3-16" edge="1">
                    <mxGeometry relative="1" as="geometry">
                        <mxPoint x="1474" y="190" as="targetPoint"/>
                        <Array as="points">
                            <mxPoint x="1575" y="182"/>
                        </Array>
                    </mxGeometry>
                </mxCell>
                <mxCell id="GK6k5ofdG1E72wdWJPs3-9" value="links &amp;gt; rechts + X" style="edgeLabel;html=1;align=center;verticalAlign=middle;resizable=0;points=[];" parent="GK6k5ofdG1E72wdWJPs3-8" vertex="1" connectable="0">
                    <mxGeometry x="-0.2278" relative="1" as="geometry">
                        <mxPoint x="-11" as="offset"/>
                    </mxGeometry>
                </mxCell>
                <mxCell id="GK6k5ofdG1E72wdWJPs3-10" style="edgeStyle=orthogonalEdgeStyle;rounded=0;orthogonalLoop=1;jettySize=auto;html=1;entryX=0;entryY=0.5;entryDx=0;entryDy=0;" parent="1" source="GK6k5ofdG1E72wdWJPs3-14" target="GK6k5ofdG1E72wdWJPs3-20" edge="1">
                    <mxGeometry relative="1" as="geometry">
                        <mxPoint x="1474" y="330" as="targetPoint"/>
                        <Array as="points">
                            <mxPoint x="1575" y="280"/>
                            <mxPoint x="1620" y="280"/>
                            <mxPoint x="1620" y="70"/>
                            <mxPoint x="990" y="70"/>
                            <mxPoint x="990" y="182"/>
                        </Array>
                    </mxGeometry>
                </mxCell>
                <mxCell id="GK6k5ofdG1E72wdWJPs3-11" value="else" style="edgeLabel;html=1;align=center;verticalAlign=middle;resizable=0;points=[];" parent="GK6k5ofdG1E72wdWJPs3-10" vertex="1" connectable="0">
                    <mxGeometry x="-0.1406" y="1" relative="1" as="geometry">
                        <mxPoint x="75" y="-1" as="offset"/>
                    </mxGeometry>
                </mxCell>
                <mxCell id="GK6k5ofdG1E72wdWJPs3-12" style="edgeStyle=orthogonalEdgeStyle;rounded=0;orthogonalLoop=1;jettySize=auto;html=1;entryX=1;entryY=0.5;entryDx=0;entryDy=0;" parent="1" source="GK6k5ofdG1E72wdWJPs3-14" target="GK6k5ofdG1E72wdWJPs3-18" edge="1">
                    <mxGeometry relative="1" as="geometry">
                        <mxPoint x="1679" y="255" as="targetPoint"/>
                        <Array as="points">
                            <mxPoint x="1600" y="255"/>
                            <mxPoint x="1600" y="110"/>
                        </Array>
                    </mxGeometry>
                </mxCell>
                <mxCell id="GK6k5ofdG1E72wdWJPs3-13" value="links &amp;lt; rechts + X" style="edgeLabel;html=1;align=center;verticalAlign=middle;resizable=0;points=[];" parent="GK6k5ofdG1E72wdWJPs3-12" vertex="1" connectable="0">
                    <mxGeometry x="-0.3341" y="-1" relative="1" as="geometry">
                        <mxPoint x="-81" y="-27" as="offset"/>
                    </mxGeometry>
                </mxCell>
                <mxCell id="GK6k5ofdG1E72wdWJPs3-14" value="" style="rhombus;" parent="1" vertex="1">
                    <mxGeometry x="1560" y="240" width="30" height="30" as="geometry"/>
                </mxCell>
                <mxCell id="GK6k5ofdG1E72wdWJPs3-15" style="edgeStyle=orthogonalEdgeStyle;rounded=0;orthogonalLoop=1;jettySize=auto;html=1;entryX=1;entryY=0.5;entryDx=0;entryDy=0;" parent="1" source="GK6k5ofdG1E72wdWJPs3-16" target="GK6k5ofdG1E72wdWJPs3-20" edge="1">
                    <mxGeometry relative="1" as="geometry"/>
                </mxCell>
                <mxCell id="GK6k5ofdG1E72wdWJPs3-16" value="verringere links / erhöhe rechts" style="html=1;align=center;verticalAlign=top;rounded=1;absoluteArcSize=1;arcSize=10;dashed=0;whiteSpace=wrap;" parent="1" vertex="1">
                    <mxGeometry x="1229" y="162" width="140" height="40" as="geometry"/>
                </mxCell>
                <mxCell id="GK6k5ofdG1E72wdWJPs3-17" style="edgeStyle=orthogonalEdgeStyle;rounded=0;orthogonalLoop=1;jettySize=auto;html=1;entryX=0.5;entryY=0;entryDx=0;entryDy=0;" parent="1" source="GK6k5ofdG1E72wdWJPs3-20" target="GK6k5ofdG1E72wdWJPs3-5" edge="1">
                    <mxGeometry relative="1" as="geometry">
                        <mxPoint x="1059" y="160" as="targetPoint"/>
                    </mxGeometry>
                </mxCell>
                <mxCell id="GK6k5ofdG1E72wdWJPs3-18" value="erhöhe links / verringere rechts" style="html=1;align=center;verticalAlign=top;rounded=1;absoluteArcSize=1;arcSize=10;dashed=0;whiteSpace=wrap;" parent="1" vertex="1">
                    <mxGeometry x="1229" y="90" width="140" height="40" as="geometry"/>
                </mxCell>
                <mxCell id="GK6k5ofdG1E72wdWJPs3-19" value="" style="edgeStyle=orthogonalEdgeStyle;rounded=0;orthogonalLoop=1;jettySize=auto;html=1;entryX=0.5;entryY=0;entryDx=0;entryDy=0;" parent="1" source="GK6k5ofdG1E72wdWJPs3-18" target="GK6k5ofdG1E72wdWJPs3-20" edge="1">
                    <mxGeometry relative="1" as="geometry">
                        <mxPoint x="1049" y="235" as="targetPoint"/>
                        <mxPoint x="1229" y="110" as="sourcePoint"/>
                    </mxGeometry>
                </mxCell>
                <mxCell id="GK6k5ofdG1E72wdWJPs3-20" value="" style="rhombus;" parent="1" vertex="1">
                    <mxGeometry x="1034" y="167" width="30" height="30" as="geometry"/>
                </mxCell>
                <mxCell id="Qfua39mgXTGi06EiGtpn-1" style="edgeStyle=orthogonalEdgeStyle;rounded=0;orthogonalLoop=1;jettySize=auto;html=1;entryX=0.5;entryY=0;entryDx=0;entryDy=0;" parent="1" source="GK6k5ofdG1E72wdWJPs3-21" target="AbxxELqDTERuPNaKWa4e-5" edge="1">
                    <mxGeometry relative="1" as="geometry">
                        <Array as="points"/>
                    </mxGeometry>
                </mxCell>
                <mxCell id="GK6k5ofdG1E72wdWJPs3-21" value="Abstandsunterschied&amp;nbsp; X berechnen" style="html=1;align=center;verticalAlign=top;rounded=1;absoluteArcSize=1;arcSize=10;dashed=0;whiteSpace=wrap;" parent="1" vertex="1">
                    <mxGeometry x="1160" y="230" width="140" height="40" as="geometry"/>
                </mxCell>
                <mxCell id="AbxxELqDTERuPNaKWa4e-6" style="edgeStyle=orthogonalEdgeStyle;rounded=0;orthogonalLoop=1;jettySize=auto;html=1;entryX=0;entryY=0.5;entryDx=0;entryDy=0;" parent="1" source="AbxxELqDTERuPNaKWa4e-5" target="LZxNYevSgSS5ODaZ3yzZ-1" edge="1">
                    <mxGeometry relative="1" as="geometry"/>
                </mxCell>
                <mxCell id="AbxxELqDTERuPNaKWa4e-7" value="&lt;font style=&quot;font-size: 11px;&quot;&gt;X &amp;lt; threshhold&lt;/font&gt;" style="edgeLabel;html=1;align=center;verticalAlign=middle;resizable=0;points=[];" parent="AbxxELqDTERuPNaKWa4e-6" vertex="1" connectable="0">
                    <mxGeometry x="-0.264" y="2" relative="1" as="geometry">
                        <mxPoint x="9" y="2" as="offset"/>
                    </mxGeometry>
                </mxCell>
                <mxCell id="AbxxELqDTERuPNaKWa4e-9" style="edgeStyle=orthogonalEdgeStyle;rounded=0;orthogonalLoop=1;jettySize=auto;html=1;entryX=0.5;entryY=0;entryDx=0;entryDy=0;" parent="1" source="AbxxELqDTERuPNaKWa4e-5" target="AbxxELqDTERuPNaKWa4e-8" edge="1">
                    <mxGeometry relative="1" as="geometry"/>
                </mxCell>
                <mxCell id="AbxxELqDTERuPNaKWa4e-10" value="else" style="edgeLabel;html=1;align=center;verticalAlign=middle;resizable=0;points=[];" parent="AbxxELqDTERuPNaKWa4e-9" vertex="1" connectable="0">
                    <mxGeometry x="0.2" relative="1" as="geometry">
                        <mxPoint x="-1" y="-9" as="offset"/>
                    </mxGeometry>
                </mxCell>
                <mxCell id="AbxxELqDTERuPNaKWa4e-5" value="" style="rhombus;" parent="1" vertex="1">
                    <mxGeometry x="1215" y="300" width="30" height="30" as="geometry"/>
                </mxCell>
                <mxCell id="AbxxELqDTERuPNaKWa4e-8" value="" style="ellipse;html=1;shape=endState;fillColor=strokeColor;" parent="1" vertex="1">
                    <mxGeometry x="1215" y="370" width="30" height="30" as="geometry"/>
                </mxCell>
                <mxCell id="LZxNYevSgSS5ODaZ3yzZ-7" style="edgeStyle=orthogonalEdgeStyle;rounded=0;orthogonalLoop=1;jettySize=auto;html=1;entryX=0.5;entryY=0;entryDx=0;entryDy=0;" parent="1" source="LZxNYevSgSS5ODaZ3yzZ-1" target="LZxNYevSgSS5ODaZ3yzZ-5" edge="1">
                    <mxGeometry relative="1" as="geometry"/>
                </mxCell>
                <mxCell id="LZxNYevSgSS5ODaZ3yzZ-1" value="Abstandsunterschied&amp;nbsp; vorne berechnen" style="html=1;align=center;verticalAlign=top;rounded=1;absoluteArcSize=1;arcSize=10;dashed=0;whiteSpace=wrap;" parent="1" vertex="1">
                    <mxGeometry x="1350" y="295" width="140" height="40" as="geometry"/>
                </mxCell>
                <mxCell id="LZxNYevSgSS5ODaZ3yzZ-8" style="edgeStyle=orthogonalEdgeStyle;rounded=0;orthogonalLoop=1;jettySize=auto;html=1;exitX=0;exitY=0.5;exitDx=0;exitDy=0;entryX=1;entryY=0.5;entryDx=0;entryDy=0;" parent="1" source="LZxNYevSgSS5ODaZ3yzZ-5" target="AbxxELqDTERuPNaKWa4e-8" edge="1">
                    <mxGeometry relative="1" as="geometry"/>
                </mxCell>
                <mxCell id="LZxNYevSgSS5ODaZ3yzZ-11" value="vorne &amp;lt; threshhold" style="edgeLabel;html=1;align=center;verticalAlign=middle;resizable=0;points=[];" parent="LZxNYevSgSS5ODaZ3yzZ-8" vertex="1" connectable="0">
                    <mxGeometry x="-0.0547" relative="1" as="geometry">
                        <mxPoint as="offset"/>
                    </mxGeometry>
                </mxCell>
                <mxCell id="LZxNYevSgSS5ODaZ3yzZ-9" style="edgeStyle=orthogonalEdgeStyle;rounded=0;orthogonalLoop=1;jettySize=auto;html=1;entryX=0;entryY=0.5;entryDx=0;entryDy=0;" parent="1" source="LZxNYevSgSS5ODaZ3yzZ-5" target="GK6k5ofdG1E72wdWJPs3-14" edge="1">
                    <mxGeometry relative="1" as="geometry">
                        <Array as="points">
                            <mxPoint x="1520" y="385"/>
                            <mxPoint x="1520" y="255"/>
                        </Array>
                    </mxGeometry>
                </mxCell>
                <mxCell id="LZxNYevSgSS5ODaZ3yzZ-10" value="else" style="edgeLabel;html=1;align=center;verticalAlign=middle;resizable=0;points=[];" parent="LZxNYevSgSS5ODaZ3yzZ-9" vertex="1" connectable="0">
                    <mxGeometry x="-0.6227" y="-1" relative="1" as="geometry">
                        <mxPoint as="offset"/>
                    </mxGeometry>
                </mxCell>
                <mxCell id="LZxNYevSgSS5ODaZ3yzZ-5" value="" style="rhombus;" parent="1" vertex="1">
                    <mxGeometry x="1405" y="370" width="30" height="30" as="geometry"/>
                </mxCell>
                <mxCell id="LZxNYevSgSS5ODaZ3yzZ-13" value="Turn Left/Right + Ultraschallsensoren =&amp;gt; siehe&amp;nbsp; Readme" style="text;html=1;align=center;verticalAlign=middle;resizable=0;points=[];autosize=1;strokeColor=none;fillColor=none;" parent="1" vertex="1">
                    <mxGeometry x="855" y="448" width="320" height="30" as="geometry"/>
                </mxCell>
            </root>
        </mxGraphModel>
    </diagram>
</mxfile>